<?xml version="1.0" encoding="utf-8"?>
<!-- Generator: Adobe Illustrator 27.1.0, SVG Export Plug-In . SVG Version: 6.00 Build 0)  -->
<svg version="1.1" id="Layer_1" xmlns="http://www.w3.org/2000/svg" xmlns:xlink="http://www.w3.org/1999/xlink" x="0px" y="0px"
	 viewBox="0 0 512 512" style="enable-background:new 0 0 512 512;" xml:space="preserve">
<style type="text/css">
	.st0{opacity:0.7;fill:#FFFFFF;}
</style>
<path class="st0" d="M477.6,128.1L477.6,128.1c-3.6-6.2-8.5-11.6-13.9-14.7L275.8,4.9c-10.8-6.3-28.5-6.3-39.4,0L48.4,113.4
	c-10.8,6.3-19.7,21.6-19.7,34.1v217c0,6.3,2.2,13.2,5.8,19.4c3.6,6.2,8.5,11.6,13.9,14.7l187.9,108.5c10.8,6.3,28.5,6.3,39.4,0
	l187.9-108.4c5.4-3.1,10.4-8.5,13.9-14.7c3.6-6.2,5.8-13.1,5.8-19.4v-217C483.4,141.3,481.1,134.3,477.6,128.1z M256.1,407.6
	c-83.6,0-151.5-68-151.5-151.5s68-151.5,151.5-151.5c54.1,0.1,104,28.9,131.2,75.7l-65.5,38c-13.6-23.4-38.6-37.9-65.7-37.9
	c-41.8,0-75.8,34-75.8,75.8s34,75.8,75.8,75.8c27-0.1,52-14.5,65.7-37.9l65.6,37.9C360.1,378.6,310.2,407.4,256.1,407.6z"/>
</svg>
