<?xml version="1.0" encoding="utf-8"?>
<!-- Generator: Adobe Illustrator 27.1.0, SVG Export Plug-In . SVG Version: 6.00 Build 0)  -->
<svg version="1.1" id="Layer_1" xmlns="http://www.w3.org/2000/svg" xmlns:xlink="http://www.w3.org/1999/xlink" x="0px" y="0px"
	 viewBox="0 0 512 512" style="enable-background:new 0 0 512 512;" xml:space="preserve">
<style type="text/css">
	.st0{opacity:0.7;fill:#FFFFFF;}
</style>
<path class="st0" d="M477.7,128c-3.6-6.2-8.5-11.6-13.9-14.7L275.7,4.7c-10.8-6.3-28.6-6.3-39.4,0L48.2,113.3
	c-10.8,6.3-19.7,21.6-19.7,34.1v217.2c0,6.3,2.2,13.2,5.8,19.4c3.6,6.2,8.5,11.6,13.9,14.7l188.1,108.6c10.8,6.3,28.6,6.3,39.4,0
	l188.1-108.6c5.4-3.1,10.3-8.5,13.9-14.7c3.6-6.2,5.8-13.1,5.8-19.4V147.4C483.5,141.1,481.3,134.2,477.7,128L477.7,128z M256,407.7
	c-83.6,0-151.7-68-151.7-151.7s68-151.7,151.7-151.7c54.1,0.1,104.2,29,131.3,75.8l-65.6,38c-13.6-23.4-38.6-37.9-65.7-38
	c-41.8,0-75.8,34-75.8,75.8s34,75.8,75.8,75.8c27.1-0.1,52.1-14.5,65.7-37.9l65.6,38C360.2,378.7,310.2,407.6,256,407.7z
	 M407.7,264.4h-16.9v16.9H374v-16.9h-16.9v-16.9H374v-16.9h16.9v16.9h16.9V264.4z M470.9,264.4H454v16.9h-16.9v-16.9h-16.8v-16.9
	h16.8v-16.9H454v16.9h16.9V264.4z"/>
</svg>
