<?xml version="1.0" encoding="utf-8"?>
<!-- Generator: Adobe Illustrator 27.1.0, SVG Export Plug-In . SVG Version: 6.00 Build 0)  -->
<svg version="1.1" id="Layer_1" xmlns="http://www.w3.org/2000/svg" xmlns:xlink="http://www.w3.org/1999/xlink" x="0px" y="0px"
	 viewBox="0 0 512 512" style="enable-background:new 0 0 512 512;" xml:space="preserve">
<style type="text/css">
	.st0{opacity:0.7;fill:#FFFFFF;}
</style>
<path class="st0" d="M400.2,242.7h27.5v27.6h-27.5V242.7z M492.7,150.9v210.2c0.2,7.8-1.7,15.4-5.5,22.2c-0.2,0.3-0.4,0.5-0.6,0.8
	c-3.6,5.6-8.3,10.4-14,13.9c-0.9,0.6-1.9,1.2-2.8,1.7c-63.1,34.8-126.2,69.6-189.2,104.4c-10.2,6.1-22.1,8.1-33.4,6.1
	c-6-1.1-11.8-3.3-17.1-6.6C205.1,489.5,79.5,420.5,42,399.7c-7.2-3.8-13.2-9.4-17.4-16.4c-3.8-6.8-5.6-14.5-5.5-22.2V150.9
	c-0.6-16.3,8.4-31.4,22.9-38.7C79.6,91.4,205.2,22.5,230.3,8.3c15.4-9.6,34.8-9.8,50.3-0.4C343.8,42.6,406.9,77.4,470,112.3
	c7,3.7,12.9,9.3,17.1,16C491,135.2,493,143,492.7,150.9L492.7,150.9z M387.4,330.7l-65.8-37.9c-20.3,36.1-66.1,49-102.2,28.6
	c-36.1-20.3-49-66.1-28.6-102.2c20.3-36.1,66.1-49,102.2-28.6c11.7,6.6,21.4,16.2,28.1,27.8l65.9-37.8
	c-42.1-72.2-134.8-96.7-207-54.6c-46.3,27-74.9,76.4-75.2,130c0,26.3,6.9,52.2,20,75c41.9,72.4,134.6,97.2,207.1,55.3
	C355,373,374.1,353.8,387.4,330.7z M468.6,220.2h-18.3v-18.3h-22.6v18.3h-27.5v-18.3h-22.6v18.3h-18.4v22.6h18.3v27.6h-18.3v22.5
	h18.3v18.3h22.6v-18.3h27.5v18.3h22.6v-18.3h18.3v-22.5h-18.2v-27.6h18.3V220.2z"/>
</svg>
