<?xml version="1.0" encoding="utf-8"?>
<!-- Generator: Adobe Illustrator 27.1.0, SVG Export Plug-In . SVG Version: 6.00 Build 0)  -->
<svg version="1.1" id="Layer_1" xmlns="http://www.w3.org/2000/svg" xmlns:xlink="http://www.w3.org/1999/xlink" x="0px" y="0px"
	 viewBox="0 0 512 512" style="enable-background:new 0 0 512 512;" xml:space="preserve">
<style type="text/css">
	.st0{opacity:0.7;fill:#FFFFFF;}
</style>
<path class="st0" d="M499.6,201c-0.5-0.8-1.1-1.5-1.6-2.2c-1.8-2.6-3.6-5-5.6-7.4c-14.7-15.9-35.4-27.7-57.3-28.7
	c-31.5-0.7-63.6,5.1-87.2,27.6c-0.9,0.9-1.7,1.7-2.5,2.5c-5.9,5.8-11.4,11.8-16,18.8c-0.6,1-0.6,1-1.3,2c-2.9,4.6-5.2,9.3-7.4,14.3
	c-0.3,0.7-0.6,1.5-0.9,2.2c-0.6,1.5-1.3,2.9-1.9,4.4c-0.5,1.1-1,2.2-1.4,3.3c-9.7,0-19.5,0.1-29.2,0.2c-5,0-9.9,0.1-14.9,0.1
	c-4.9,0-9.7,0-14.6,0.1c-1.9,0-3.7,0-5.6,0.1c-2.7,0-5.3,0-8,0c-0.8,0-1.6,0-2.4,0c-2.8,0-5.2,0.1-8.1,0.5c-2.7,2.1-3.9,3.8-5.5,6.7
	c-0.5,1.1-1,2.1-1.4,3.1c-0.8,1.7-0.8,1.7-1.6,3.4c-0.5,1.2-1.1,2.4-1.6,3.6c-2.5,5.3-5.2,10.5-6.6,16.3c-0.2,2.8-0.2,2.8,1.8,5.8
	c0.7,0.1,1.5,0.2,2.2,0.4c1.4,0,1.4,0,2.7,0c1,0,2.1,0,3.1,0c1.1,0,2.2,0,3.3,0c3.5,0,7,0,10.6-0.1c2.5,0,4.9,0,7.4-0.1
	c6.6,0,13.1-0.1,19.7-0.1c0.7,0,1.3,0,1.9,0c-2.6,3.7-5.2,7.4-8,11c-7.6,8-20,13.4-30.9,14c-11.8,0.1-22.4-3.6-30.9-12
	c-7.3-8.3-10.8-19.3-10.2-30.3c0.1-0.9,0.2-1.8,0.2-2.7c0.8-12,6.5-23.8,14.7-32.5c9.7-8.8,22.1-15.4,35.5-15.8
	c10.8,0.6,21.5,4.6,28.9,12.7c1.7,2.1,1.7,2.1,3.7,3.6c4.7,0.3,8.8-0.3,13.4-1.4c1.2-0.3,1.2-0.3,2.3-0.6c1.7-0.4,3.4-0.9,5-1.3
	c2.6-0.7,5.2-1.4,7.9-2.1c1.7-0.4,3.4-0.9,5.2-1.4c0.8-0.2,1.7-0.4,2.5-0.7c5.2-1.4,9.9-2.9,14.6-5.5c-3-11.6-10-21.8-18.7-29.9
	c-0.8-0.7-1.5-1.3-2.3-2c-2.3-2.1-4.6-4.1-7.1-6c-40.9-27.8-97.7-14.1-130.2,20.2c-19.8,21.6-31.5,47.5-30.2,77.1
	c1.3,21.5,9.2,42.2,25.5,56.8c21.3,18.2,44.5,24.3,72.1,22.6c25.7-2.5,50.1-14.8,66.8-34.5c0.7-0.8,1.4-1.6,2-2.5
	c4.9-5.8,9.2-11.6,12.9-18.1c0.3-0.6,0.7-1.2,1-1.8c0.6,1.3,0.6,1.3,1.3,2.5c0.6,1.2,1.2,2.3,1.7,3.4c3.9,7.8,7.6,15.4,13.7,21.8
	c0.8,0.7,1.5,1.5,2.2,2.2c12.6,12.6,26.7,20.9,44.1,25.2c29.3,6.7,58.8-0.1,84.2-15.5c22.8-14.3,40.8-37.9,47.2-64.1
	C514.3,247.9,512.4,220.3,499.6,201z M460,258.7c-3,15.2-11.4,27-23.9,36c-12.4,7.7-25.2,10.7-39.6,8.2c-12.3-5-20.4-10.1-27-21.7
	c-4.7-9.6-6.1-20.2-3-30.6c0.2-0.7,0.5-1.3,0.7-2c2.9-8.6,6.9-16.3,12.9-23.1c11.1-10.8,27.7-17.4,43.1-16.8
	c12.8,1.6,22,8,30.1,17.7C460.2,236.3,461.2,247.2,460,258.7z M122.7,231.8c1,3,1,3-2,10c-39.8,0-79.7,0-120.7,0
	c2.6-10.3,7.7-10.9,17.3-10.7c1.7,0,1.7,0,3.5,0c3.8,0,7.5,0.1,11.3,0.1c2.6,0,5.2,0,7.8,0c6.2,0,12.3,0.1,18.5,0.1
	c7,0.1,14,0.1,21.1,0.1C93.9,231.5,108.3,231.6,122.7,231.8z M135.7,208.8c-0.3,4-1.7,6.8-4.4,9.8c-3.2,2.4-6.9,1.9-10.7,1.8
	c-0.9,0-1.8,0-2.7,0c-3,0-6-0.1-9-0.2c-2.1,0-4.1-0.1-6.2-0.1c-5.5-0.1-10.9-0.2-16.4-0.3c-5.6-0.1-11.1-0.2-16.7-0.3
	c-10.9-0.2-21.8-0.4-32.7-0.6c2.8-8.8,7.5-10.7,16-10.5c0.9,0,1.8,0,2.7,0c3,0,5.9,0,8.9,0.1c2.1,0,4.1,0,6.2,0
	c5.4,0,10.8,0.1,16.2,0.1c5.5,0.1,11,0.1,16.5,0.1C114.1,208.6,124.9,208.7,135.7,208.8z M99.1,254.5c6.2,0.1,12.4,0.1,18.6,0.2
	c0,3.3,0,6.6,0,10c-19.1,0-38.2,0-57.9,0c2.2-10.9,7-10.7,16.9-10.5c1.2,0,2.3,0,3.5,0c3.7,0,7.5,0.1,11.2,0.2
	C94.1,254.4,96.6,254.5,99.1,254.5z"/>
</svg>
