<?xml version="1.0" encoding="utf-8"?>
<!-- Generator: Adobe Illustrator 27.1.0, SVG Export Plug-In . SVG Version: 6.00 Build 0)  -->
<svg version="1.1" id="Layer_1" xmlns="http://www.w3.org/2000/svg" xmlns:xlink="http://www.w3.org/1999/xlink" x="0px" y="0px"
	 viewBox="0 0 512 512" style="enable-background:new 0 0 512 512;" xml:space="preserve">
<style type="text/css">
	.st0{opacity:0.7;fill:#FFFFFF;}
</style>
<path class="st0" d="M188.6,161.6c14.4-31.2,41.2-50.1,64.8-66.7c16.5-11.6,30.7-21.6,37.2-33.4c15.7-28.5,10.1-56.1,10-56.4
	c-0.4-1.9,0.6-3.9,2.4-4.7c1.8-0.8,4-0.2,5.1,1.4c0.3,0.4,29.4,42.2,3.2,84.7c-11.9,19.3-32.3,35.8-50.3,50.4
	c-19.6,15.9-38.2,30.9-38.5,44.2c-1,38,26.3,91,26.5,91.6c0.9,1.7,0.5,3.9-1,5.2c-0.8,0.7-1.7,1-2.7,1c-0.9,0-1.8-0.3-2.6-0.9
	C239.7,275.4,163.7,216,188.6,161.6z M250.7,188.2c0,30.3,12.9,46.3,22.4,58c3.7,4.6,6.9,8.5,8,11.9c3,9.7-4.1,27.4-7,33.3
	c-0.9,1.7-0.4,3.8,1,5c0.8,0.7,1.8,1,2.7,1c0.8,0,1.7-0.2,2.4-0.8c1.6-1.1,39.7-28,32.8-60.4c-2.5-12.3-8.6-21.3-13.9-29.3
	c-8.3-12.3-14.3-21.2-5.2-37.6c10.6-19.1,58.7-55.5,59.2-55.9c1.7-1.3,2.2-3.6,1.1-5.4c-1-1.8-3.2-2.6-5.2-1.9
	C345.1,107.9,250.7,144.3,250.7,188.2z M211.7,334.2C211.7,334.2,211.7,334.2,211.7,334.2c7.5,0,15.5-0.1,23.6-0.4
	c88.9-3.2,121.8-30.9,123.2-32c1.5-1.3,1.9-3.4,1-5.1c-0.9-1.7-2.9-2.6-4.8-2.1C323.4,303,264.9,306,224.4,306
	c-45.4,0-68.5-3.3-74.1-5.7c2.9-4,20.8-11.1,43-15.5c2.1-0.4,3.6-2.4,3.4-4.5c-0.2-2.2-2-3.8-4.2-3.8c-13,0-78.2,1-85,21.7
	c-1.6,4.8-0.9,9.7,2.2,13.9C119.9,326.3,156.1,334.2,211.7,334.2z M359.2,375.1c0.7,1.6,2.2,2.6,3.9,2.6c0.3,0,0.6,0,0.9-0.1
	c3.7-0.8,90.4-19.9,81.2-70.4c-5.6-30.9-25-37.4-40.4-37.4c-18.3,0-35.7,9.2-36.4,9.6c-1.7,0.9-2.6,2.9-2.1,4.7
	c0.5,1.9,2.1,3.2,4.1,3.2c0.4,0,39.1,0.3,42.6,22.4c3.1,19.1-36.6,50-52.2,60.3C359.1,371,358.4,373.2,359.2,375.1z M345.3,363.8
	c0.3-1.6-0.4-3.3-1.7-4.2L322.8,345c-1-0.7-2.3-0.9-3.5-0.6c-0.2,0.1-22,5.8-53.5,9.3c-12.5,1.4-26.6,2.1-40.6,2.1
	c-31.6,0-52.2-3.7-55.2-6.4c-0.4-0.8-0.3-1.1-0.2-1.3c0.5-1.5,3.5-3.3,5.4-4c2.1-0.8,3.2-3,2.6-5.2c-0.6-2.1-2.8-3.4-5-2.9
	c-20.9,5-31.1,12.1-30.3,20.9c1.3,15.7,37.6,23.7,68.4,25.9c4.4,0.3,9.2,0.5,14.2,0.5c0,0,0,0,0,0c51.1,0,116.5-16,117.2-16.2
	C343.8,366.7,345,365.4,345.3,363.8z M188.6,397.4c1.6-1,2.3-3,1.7-4.8c-0.6-1.8-2.2-3-4.1-2.9c-2.8,0.1-27.3,1.2-29.1,16.8
	c-0.5,4.7,0.8,8.9,4,12.7c8.8,10.4,32.6,16.7,72.7,19c4.7,0.3,9.6,0.4,14.3,0.4c51,0,85.4-16,86.8-16.7c1.4-0.7,2.3-2,2.4-3.6
	c0.1-1.5-0.7-3-2-3.8l-26.3-16c-0.9-0.6-2-0.7-3-0.5c-0.2,0-16.8,3.5-42,6.9c-4.8,0.6-10.7,1-17.7,1c-25.2,0-53.1-4.1-58.5-6.8
	C187.8,398.6,187.8,398,188.6,397.4z M224.4,486.8c116.9-0.1,179.6-20.9,191.7-34c4.3-4.6,4.7-9,4.4-11.9c-0.9-7-7.3-11.3-8-11.8
	c-1.8-1.1-4.1-0.8-5.5,0.7c-1.4,1.6-1.4,3.9,0,5.5c0.7,0.9,1.2,2.5-1,4.7c-4.8,4.5-53.5,18.2-134.7,22.3
	c-11.1,0.6-22.8,0.9-34.6,0.9c-72.6,0-125.8-9.9-132.7-15.7c2.7-3.9,21.5-10,41.5-13.5c2.3-0.4,3.8-2.5,3.4-4.8
	c-0.3-2.3-2.4-3.8-4.7-3.5c-0.6,0.1-2.5,0.2-4.7,0.3c-33,2-71.1,6.5-73.1,23.5c-0.6,5.2,0.9,9.9,4.6,14
	C79.8,473.5,105.4,486.8,224.4,486.8C224.4,486.8,224.4,486.8,224.4,486.8z M439,456.6c-1.7-0.8-3.6-0.4-4.8,1
	c-0.2,0.2-17.7,18.6-70.6,29.3c-20.2,4.1-58.2,6.1-112.8,6.1c-54.7,0-106.8-2.2-107.4-2.2c-2.2-0.1-4,1.5-4.3,3.6
	c-0.3,2.1,1.1,4.2,3.2,4.7c0.5,0.1,55.1,12.9,129.8,12.9c35.8,0,70.6-2.9,103.5-8.6c61.4-10.8,65.7-41.2,65.8-42.5
	C441.6,459.1,440.7,457.3,439,456.6z"/>
</svg>
