<?xml version="1.0" encoding="utf-8"?>
<!-- Generator: Adobe Illustrator 27.1.0, SVG Export Plug-In . SVG Version: 6.00 Build 0)  -->
<svg version="1.1" id="Layer_1" xmlns="http://www.w3.org/2000/svg" xmlns:xlink="http://www.w3.org/1999/xlink" x="0px" y="0px"
	 viewBox="0 0 512 512" style="enable-background:new 0 0 512 512;" xml:space="preserve">
<style type="text/css">
	.st0{opacity:0.7;fill:#FFFFFF;}
</style>
<path class="st0" d="M0,0h512v512H0V0 M134.5,426.7c12.7,28.2,41.4,45.7,72.2,44.1c35.9,3.9,68.2-22.2,72-58.1
	c0.5-4.8,0.5-9.7-0.1-14.5V235h-48.4v163.3c0,24.5-10,30.7-25.6,30.7s-23.3-11.4-31-24.7L134.5,426.7 M305.2,421.5
	c17.1,32.3,51.5,51.5,87.9,49.2c45.5,0,79.6-23.6,79.6-67.1s-23-56.9-64-75.7l-11.9-5.1c-20.8-8.8-28.4-14.8-28.4-28.4
	c0.1-11.6,9.6-21,21.2-20.9c0.6,0,1.2,0,1.8,0.1c13.6-0.1,26,8.1,31,20.8l37.3-24.7c-13.2-25.1-40-40-68.3-37.8
	c-35.3-3.5-66.8,22.4-70.2,57.7c-0.2,1.9-0.3,3.8-0.3,5.7c0,39.3,23,56.9,56.9,72.5l11.9,5.1c22.2,9.7,35.3,15.6,35.3,32.1
	s-12.8,23.6-32.7,23.6c-20,0.4-38.4-10.6-47.5-28.4L305.2,421.5z"/>
</svg>
