<?xml version="1.0" encoding="utf-8"?>
<!-- Generator: Adobe Illustrator 27.1.0, SVG Export Plug-In . SVG Version: 6.00 Build 0)  -->
<svg version="1.1" id="Layer_1" xmlns="http://www.w3.org/2000/svg" xmlns:xlink="http://www.w3.org/1999/xlink" x="0px" y="0px"
	 viewBox="0 0 512 512" style="enable-background:new 0 0 512 512;" xml:space="preserve">
<style type="text/css">
	.st0{opacity:0.7;fill:#FFFFFF;}
</style>
<path class="st0" d="M256,385.3C115,385.3,0.8,327.5,0.8,256S115,126.7,256,126.7S511.2,184.5,511.2,256S397,385.3,256,385.3
	 M145.6,216.2c8.3-1.1,16.7,1.3,23.2,6.6c3.9,6.4,5,14.1,2.8,21.3c-1,9-5.4,17.3-12.3,23.2c-8.1,5.3-17.8,7.7-27.4,7h-18.5
	l11.3-58.7h21.3 M71.4,333.6h30.4l7.2-37.2h26.2c9.6,0.2,19.1-1,28.3-3.6c7.9-2.5,15.2-6.7,21.3-12.3c4.9-4.5,9.1-9.7,12.3-15.5
	c3.3-5.8,5.6-12.1,6.6-18.7c4.1-13.3,1.5-27.7-7-38.7c-10.6-10.1-25.1-14.9-39.6-13.2H98.4L71.2,334.3 M225.4,157.1L198.2,297h30.2
	l15.7-80.2h24.2c5.3-0.7,10.7,0.7,15.1,3.8c2.6,4.2,3.1,9.4,1.5,14L272.8,297h30.8l12.5-65.3c3.4-10,1.2-21-5.7-28.9
	c-10.4-6.8-22.8-9.8-35.1-8.5h-27l7.7-37.2L225.4,157.1 M383.6,216.2c8.3-1.1,16.7,1.3,23.2,6.6c3.9,6.4,5,14.1,2.8,21.3
	c-1,9-5.3,17.2-12.1,23.2c-8.2,5.3-17.9,7.7-27.6,7h-18.1l10.6-58.7h21.3 M309.2,333.6h30.6l7.2-37.2H373c9.7,0.2,19.4-1,28.7-3.6
	c7.5-2.7,14.4-6.9,20.2-12.3c5-4.4,9.2-9.7,12.3-15.5c3.3-5.8,5.6-12.1,6.8-18.7c4.1-13.3,1.4-27.8-7.2-38.7
	c-10.2-10.2-24.4-15.2-38.7-13.8h-58.5L309.2,333.6z"/>
</svg>
