<?xml version="1.0" encoding="utf-8"?>
<!-- Generator: Adobe Illustrator 27.1.0, SVG Export Plug-In . SVG Version: 6.00 Build 0)  -->
<svg version="1.1" id="Layer_1" xmlns="http://www.w3.org/2000/svg" xmlns:xlink="http://www.w3.org/1999/xlink" x="0px" y="0px"
	 viewBox="0 0 512 512" style="enable-background:new 0 0 512 512;" xml:space="preserve">
<style type="text/css">
	.st0{opacity:0.7;fill:#FFFFFF;}
</style>
<path class="st0" d="M438.4,127.7c40.4,0,73.1,32.7,73.1,73.1l0,0l0,0v96.6c0,40.4-32.7,73.1-73.1,73.1c0,0,0,0,0,0H256
	c0,10,8.2,25.5,18.1,25.5h109.6v42.9c0,40.4-32.7,73.1-73.1,73.1l0,0H201.3c-40.4,0-73.1-32.7-73.1-73.1c0-0.3,0-0.7,0-1l0,0v-95.8
	c-0.6-40.2,31.6-73.3,71.8-73.8c0.4,0,0.9,0,1.3,0h134.1c40.2,0.6,73.3-31.6,73.8-71.8c0-0.1,0-0.2,0-0.3v-68.5h30.1 M329.1,429
	c-10.2,0-18.4,7.7-18.4,22.7s8.2,18.1,18.4,18.1c10,0,18.1-8.1,18.1-18.1C347.2,436.6,339,429,329.1,429 M73.6,383.2
	c-40.4,0-73.1-32.7-73.1-73.1v-96.6c0-40.4,32.7-73.1,73.1-73.1H256c0-10-8.2-25.5-18.1-25.5H128.3V73.1C128.3,32.7,161,0,201.3,0
	h109.3c40.4,0,73.1,32.7,73.1,73.1c0,0,0,0,0,0v95.8c0.6,40.2-31.6,73.3-71.8,73.8c-0.4,0-0.9,0-1.3,0H176.5
	c-40.2-0.6-73.3,31.6-73.8,71.8c0,0.1,0,0.2,0,0.3v68.5H73.6 M182.9,82c10.2,0,18.4-7.7,18.4-22.7s-8.2-18.1-18.4-18.1
	c-10.2,0-18.1,3.1-18.1,18.1S173,82,182.9,82z"/>
</svg>
