<?xml version="1.0" encoding="utf-8"?>
<!-- Generator: Adobe Illustrator 27.1.0, SVG Export Plug-In . SVG Version: 6.00 Build 0)  -->
<svg version="1.1" id="Layer_1" xmlns="http://www.w3.org/2000/svg" xmlns:xlink="http://www.w3.org/1999/xlink" x="0px" y="0px"
	 viewBox="0 0 512 512" style="enable-background:new 0 0 512 512;" xml:space="preserve">
<style type="text/css">
	.st0{opacity:0.7;fill:#FFFFFF;}
</style>
<path class="st0" d="M511.1,230.1c0-94.3-114.2-170.8-255.1-170.8S0.9,135.8,0.9,230.1c0,84.2,90.7,154,210.2,168.2v54.4l87-0.1v-54
	c21.3-2.4,41.8-6.5,61-12.2l35.3,66.3h98.4l-59.2-99.9C481.3,321.8,511.1,278.3,511.1,230.1z M101.2,242.9
	c0-64.5,86.8-116.8,193.9-116.8v0c107.1,0,186.1,35.8,186.1,116.8c0,44-23.3,74.6-61.8,93.5c-1.8-1.2-3.6-2.3-5.5-3.2
	c-8-3.7-16.1-6.7-24.5-9.2c42.9-2.8,76.2-38.4,76-81.4c0-75.7-79.6-77.1-79.6-77.1H211.1v182.8C146.1,329.3,101.2,289.3,101.2,242.9
	z M376,251.7c0.4,13.7-10.7,25-24.4,24.8h-52.7v-48.8h52.7v0C365.3,226.7,376.7,237.9,376,251.7z M298.1,340.2h23.3
	c4.5,0,8.7,2,11.7,5.3c3.4,3.6,6.5,7.5,9.4,11.6c-14.1,1.6-29,2.5-44.4,2.6V340.2z"/>
</svg>
