<?xml version="1.0" encoding="utf-8"?>
<!-- Generator: Adobe Illustrator 27.1.0, SVG Export Plug-In . SVG Version: 6.00 Build 0)  -->
<svg version="1.1" id="Layer_1" xmlns="http://www.w3.org/2000/svg" xmlns:xlink="http://www.w3.org/1999/xlink" x="0px" y="0px"
	 viewBox="0 0 512 512" style="enable-background:new 0 0 512 512;" xml:space="preserve">
<style type="text/css">
	.st0{opacity:0.7;fill:#FFFFFF;}
</style>
<path class="st0" d="M504,483.1c-30.9-61.1-88.9-42.1-118-29.9v1c-70.9,36.4-154.7,37.3-226.3,2.6C94,428.6,38.6,381.3,0.5,320.9
	c18.1,14.2,37.8,26.2,58.8,35.8c86.1,40.1,171.9,37.3,232.5,0C211.1,291.7,139.1,217,77.1,134.2c-10.5-12-19.8-24.9-27.8-38.6
	C260.8,250.1,251.6,289.5,110.8,70c73,74.3,153.8,140.6,240.9,197.7l9.2,5.6c2.6-6.5,4.9-13.1,6.6-19.9
	c17.5-79.6-2.1-162.8-53.1-226.3c116.2,70.2,185.2,202.1,156.3,312.7c-1,3.2-1.5,6.6-1.3,10C526.7,422.1,511.4,497.4,504,483.1z"/>
</svg>
